<svg width="26" height="18" viewBox="0 0 26 18" fill="none" xmlns="http://www.w3.org/2000/svg">
<path d="M12.9999 12.6922C14.9881 12.6922 16.5999 11.0391 16.5999 8.99992C16.5999 6.96072 14.9881 5.30762 12.9999 5.30762C11.0117 5.30762 9.3999 6.96072 9.3999 8.99992C9.3999 11.0391 11.0117 12.6922 12.9999 12.6922Z" stroke="#2A3F9B" stroke-width="2" stroke-miterlimit="10" stroke-linecap="round" stroke-linejoin="round"/>
<path d="M25 9C25 9 21.9502 17 13 17C4.0498 17 1 9 1 9C1 9 4.0498 1 13 1C21.9502 1 25 9 25 9Z" stroke="#2A3F9B" stroke-width="2" stroke-miterlimit="10" stroke-linecap="round" stroke-linejoin="round"/>
<path d="M13 17C17.3078 17 20.8 13.4183 20.8 9C20.8 4.58172 17.3078 1 13 1C8.69213 1 5.19995 4.58172 5.19995 9C5.19995 13.4183 8.69213 17 13 17Z" stroke="#2A3F9B" stroke-width="2" stroke-miterlimit="10" stroke-linecap="round" stroke-linejoin="round"/>
</svg>
