<svg width="72" height="64" viewBox="0 0 72 64" fill="none" xmlns="http://www.w3.org/2000/svg">
<path d="M34.6035 28.7859L51.1468 20.545L72.0003 28.7859L55.3664 37.1831L34.6035 28.7859Z" fill="#C90187"/>
<path d="M19.0903 7.67078L51.1461 20.5452L34.6033 28.786L19.0903 7.67078Z" fill="#9F3480"/>
<path d="M34.6031 28.786L55.3008 37.195L18.9458 55.6018L34.6031 28.786Z" fill="#5FA050"/>
<path d="M17.8756 37.099L34.6033 28.786L18.9459 55.6018L2.33691 64L17.8756 37.099Z" fill="#69AF5C"/>
<path d="M14.9852 20.8351L34.6033 28.786L17.8762 37.0989L10.9858 27.6224L14.9852 20.8351Z" fill="#5EA17E"/>
<path d="M2.3457 15.7916L14.9852 20.8351L10.9863 27.6224L2.3457 15.7916Z" fill="#69AF5C"/>
<path d="M0 0L19.0903 7.67123L34.6033 28.786L14.9852 20.8356L0 0Z" fill="#344198"/>
<path d="M10.9861 27.6224L17.8755 37.0989L0.0522461 46.0415L10.9861 27.6224Z" fill="#344198"/>
</svg>
