<svg width="64" height="56" viewBox="0 0 64 56" fill="none" xmlns="http://www.w3.org/2000/svg">
<path d="M31.8057 25.204L46.0474 18.2263L64.0001 25.204L49.6804 32.3141L31.8057 25.204Z" fill="white"/>
<path d="M17.9868 6.95386L45.5734 17.8505L31.337 24.8257L17.9868 6.95386Z" fill="white"/>
<path d="M31.5598 25.8054L49.2297 32.8661L18.1929 48.3215L31.5598 25.8054Z" fill="white"/>
<path d="M16.2646 33.2548L30.6446 26.2261L17.1843 48.8992L2.90625 55.9999L16.2646 33.2548Z" fill="white"/>
<path d="M13.2733 18.7639L30.4985 25.63L15.8116 32.8088L9.76221 24.625L13.2733 18.7639Z" fill="white"/>
<path d="M2.07227 14.261L12.8641 18.496L9.44977 24.1956L2.07227 14.261Z" fill="white"/>
<path d="M0 0L16.8686 6.6661L30.5758 25.0163L13.2408 18.1065L0 0Z" fill="white"/>
<path d="M9.39915 25.2688L15.2923 33.2416L0.0463867 40.7647L9.39915 25.2688Z" fill="white"/>
</svg>
