<svg width="353" height="56" viewBox="0 0 353 56" fill="none" xmlns="http://www.w3.org/2000/svg">
<path d="M21.9424 0V33.3462L18.1077 10.4536L0 0V56L48.3588 28.1017L21.9424 47.5967V56L70.4392 27.9997L21.9424 0Z" fill="white"/>
<path d="M145.248 12.738C139.885 12.738 137.077 15.3189 136.116 16.4297L133.729 13.4145H129.01V53.8888H137.42V42.7345C138.466 43.571 141.116 45.2974 145.17 45.2974C150.518 45.2974 156.232 42.1341 156.232 34.0558C156.232 34.0558 156.232 27.8931 156.232 24.4556C156.232 17.127 152.203 12.738 145.248 12.738ZM147.896 33.0092C147.896 34.748 146.908 37.7119 143.273 37.7119C139.64 37.7119 137.42 34.7092 137.42 34.7092V23.2107C137.42 23.2107 139.876 20.2886 143.273 20.2886C146.671 20.2886 147.896 22.777 147.896 24.8329C147.896 26.886 147.896 31.2727 147.896 33.0092Z" fill="white"/>
<path d="M161.71 13.415V44.5848H170.119V20.5549H180.066V44.5848H188.472V13.415H161.71Z" fill="white"/>
<path d="M114.511 12.7027C111.143 12.7027 108.861 14.1852 107.457 15.5815V9.94662V2.80615H99.0494H94.5889V9.94662H99.0494V15.4564C97.6373 14.0995 95.391 12.7027 92.1224 12.7027C86.7743 12.7027 82.4709 16.4174 82.4709 23.9442C82.4709 23.9442 82.4709 30.1069 82.4709 33.5445C82.4709 40.8736 85.8466 45.2625 92.3258 45.2625C95.0717 45.2625 97.3292 44.0048 99.0494 42.5003V53.89H107.457V42.3882C109.193 43.9428 111.494 45.2631 114.309 45.2631C120.789 45.2631 124.162 40.8742 124.162 33.545C124.162 30.1074 124.162 23.9448 124.162 23.9448C124.162 16.4168 119.86 12.7027 114.511 12.7027ZM95.4305 37.712C92.0323 37.712 90.8072 35.2235 90.8072 33.1688C90.8072 31.1145 90.8072 26.7273 90.8072 24.9908C90.8072 23.2514 91.7957 20.2887 95.4305 20.2887C96.9462 20.2887 98.1544 20.9967 99.0494 21.8224V36.2915C98.0738 37.0598 96.8324 37.712 95.4305 37.712ZM115.827 33.1688C115.827 35.2235 114.603 37.712 111.204 37.712C109.741 37.712 108.451 36.9984 107.457 36.1895V21.9413C108.365 21.0665 109.617 20.2892 111.204 20.2892C114.84 20.2892 115.827 23.252 115.827 24.9913C115.827 26.7273 115.827 31.114 115.827 33.1688Z" fill="white"/>
<path d="M215.496 27.3796H214.005C213.878 27.3796 213.769 27.2703 213.769 27.125V25.38H212.642C210.479 25.38 208.734 23.635 208.734 21.4721V18.9819C208.734 16.819 210.479 15.074 212.642 15.074H213.769V13.6923C213.769 13.547 213.878 13.4377 214.005 13.4377H215.496C215.624 13.4377 215.732 13.547 215.732 13.6923V15.074H216.877C219.022 15.074 220.785 16.819 220.785 18.9819V21.4721C220.785 23.635 219.022 25.38 216.877 25.38H215.732V27.125C215.732 27.2709 215.624 27.3796 215.496 27.3796ZM212.642 23.4171H213.769V17.0364H212.642C211.57 17.0364 210.679 17.9089 210.679 18.9814V21.4715C210.679 22.5446 211.57 23.4171 212.642 23.4171ZM218.823 18.9819C218.823 17.9095 217.95 17.037 216.878 17.037H215.733V23.4176H216.878C217.95 23.4176 218.823 22.5451 218.823 21.4727V18.9819Z" fill="white"/>
<path d="M230.839 24.1261C230.839 25.9257 229.385 27.38 227.586 27.38H226.277C224.478 27.38 223.023 25.9257 223.023 24.1261V21.5086C223.023 19.709 224.478 18.2546 226.277 18.2546H227.586C229.385 18.2546 230.839 19.709 230.839 21.5086V24.1261ZM228.876 21.5086C228.876 20.7995 228.295 20.2176 227.586 20.2176H226.277C225.568 20.2176 224.968 20.7995 224.968 21.5086V24.1261C224.968 24.8352 225.568 25.4171 226.277 25.4171H227.586C228.295 25.4171 228.876 24.8352 228.876 24.1261V21.5086Z" fill="white"/>
<path d="M233.13 18.5087C233.13 18.3634 233.239 18.2542 233.367 18.2542H234.839C234.967 18.2542 235.075 18.3634 235.075 18.5087V21.6534H238.838V18.5087C238.838 18.3634 238.947 18.2542 239.092 18.2542H240.547C240.674 18.2542 240.783 18.3634 240.783 18.5087V27.1249C240.783 27.2703 240.674 27.3795 240.547 27.3795H239.092C238.947 27.3795 238.838 27.2703 238.838 27.1249V23.5984H235.075V27.1249C235.075 27.2703 234.967 27.3795 234.839 27.3795H233.367C233.239 27.3795 233.13 27.2703 233.13 27.1249V18.5087Z" fill="white"/>
<path d="M244.129 27.3795V29.779C244.129 29.9244 244.019 30.0336 243.874 30.0336H242.42C242.292 30.0336 242.184 29.9244 242.184 29.779V25.6892C242.184 25.5439 242.329 25.4346 242.456 25.4346H243.329C243.637 25.1074 243.856 24.5621 243.91 23.9076L244.365 18.5087C244.383 18.3634 244.474 18.2542 244.601 18.2542H250.636C250.764 18.2542 250.89 18.3634 250.909 18.5087V25.4346H252.054C252.181 25.4346 252.308 25.5439 252.326 25.6892V29.779C252.326 29.9244 252.218 30.0336 252.09 30.0336H250.635C250.49 30.0336 250.381 29.9244 250.381 29.779V27.3795H244.129ZM245.928 23.9076C245.892 24.3075 245.747 24.9986 245.401 25.4346H248.964V20.1997H246.219L245.928 23.9076Z" fill="white"/>
<path d="M264.925 22.9444C264.707 22.9444 264.398 22.8897 264.052 22.8537L261.326 22.5445V27.1255C261.326 27.2708 261.217 27.3801 261.089 27.3801H259.617C259.489 27.3801 259.381 27.2708 259.381 27.1255V14.6008C259.381 14.4555 259.489 14.3462 259.617 14.3462H264.925C266.706 14.3462 268.179 15.8005 268.179 17.6001V19.6358C268.179 21.4354 266.706 22.9444 264.925 22.9444ZM266.216 17.6001C266.216 16.891 265.634 16.3092 264.925 16.3092H261.326V20.599L264.125 20.9082C264.416 20.9442 264.743 20.9989 264.925 20.9989C265.634 20.9989 266.216 20.3629 266.216 19.6358V17.6001Z" fill="white"/>
<path d="M270.979 20.1997C270.852 20.1997 270.743 20.0904 270.743 19.9451V18.5087C270.743 18.3634 270.852 18.2542 270.979 18.2542H274.724C276.196 18.2542 277.378 19.4173 277.378 20.8902V27.1249C277.378 27.2703 277.269 27.3795 277.123 27.3795H276.123C275.996 27.3795 275.924 27.3435 275.869 27.1796L275.651 26.5797L272.688 27.4888C272.488 27.5434 272.306 27.5434 272.179 27.5434C270.761 27.5434 269.562 26.3257 269.562 24.8894V24.1622C269.562 22.7264 270.743 21.69 272.125 21.69C272.27 21.69 272.452 21.69 272.67 21.7261L275.415 22.126V20.8902C275.415 20.5083 275.106 20.1991 274.724 20.1991H270.979V20.1997ZM275.414 23.9262L272.597 23.4902C272.452 23.4722 272.27 23.4722 272.233 23.4722C271.869 23.4722 271.506 23.7809 271.506 24.1813V25.0538C271.506 25.4538 271.742 25.745 272.197 25.745C272.252 25.745 272.288 25.745 272.561 25.6723L275.414 24.8178V23.9262Z" fill="white"/>
<path d="M282.505 27.3795C280.214 27.3795 279.251 25.9251 279.251 24.1255V23.9982C279.251 23.8529 279.36 23.7436 279.487 23.7436H280.96C281.087 23.7436 281.196 23.8529 281.196 23.9982V24.1255C281.196 24.8347 281.523 25.5072 282.505 25.5072H283.722C284.486 25.5072 284.923 25.0712 284.923 24.562V24.3807C284.923 23.8715 284.668 23.5262 283.904 23.5262H282.541C282.395 23.5262 282.287 23.4175 282.287 23.2902V21.9451C282.287 21.8178 282.395 21.7091 282.541 21.7091H283.613C284.195 21.7091 284.631 21.5092 284.631 21V20.8727C284.631 20.3641 284.286 20.1275 283.704 20.1275H282.505C281.977 20.1275 281.505 20.5454 281.305 21.018C281.269 21.1273 281.178 21.1633 281.051 21.1633L279.578 20.9087C279.469 20.8907 279.379 20.7995 279.379 20.6907C279.379 20.6722 279.397 20.6361 279.397 20.5995C279.796 19.2364 281.032 18.2546 282.505 18.2546H283.705C285.341 18.2546 286.578 18.9818 286.578 20.6175V20.8175C286.578 21.4174 286.214 22.2538 285.214 22.6357C286.232 22.9083 286.869 23.7262 286.869 24.562V24.8893C286.869 26.6343 285.469 27.3795 283.724 27.3795H282.505Z" fill="white"/>
<path d="M296.176 20.8175C296.176 21.4174 295.994 22.2173 294.994 22.5991C296.012 22.8718 296.648 23.7262 296.648 24.5621V24.8894C296.648 26.6344 295.43 27.3795 293.685 27.3795H289.068C288.94 27.3795 288.832 27.2703 288.832 27.1249V18.5087C288.832 18.3634 288.94 18.2542 289.068 18.2542H293.395C295.03 18.2542 296.176 18.9813 296.176 20.617V20.8175H296.176ZM290.777 21.7086H293.394C293.976 21.7086 294.23 21.5087 294.23 20.9995V20.7815C294.23 20.2723 293.976 20.0724 293.394 20.0724H290.777V21.7086ZM294.703 24.3807C294.703 23.8716 294.448 23.5263 293.684 23.5263H290.776V25.5625H293.684C294.447 25.5625 294.703 25.2172 294.703 24.708V24.3807Z" fill="white"/>
<path d="M298.612 18.5087C298.612 18.3634 298.721 18.2542 298.866 18.2542H300.302C300.448 18.2542 300.557 18.3634 300.557 18.5087V24.0709L304.447 18.3814C304.501 18.3088 304.555 18.2542 304.647 18.2542H306.228C306.356 18.2542 306.464 18.3634 306.464 18.5087V27.1249C306.464 27.2703 306.356 27.3795 306.228 27.3795H304.756C304.628 27.3795 304.519 27.2703 304.519 27.1249V21.5627L300.647 27.2522C300.593 27.3249 300.52 27.3795 300.429 27.3795H298.866C298.721 27.3795 298.612 27.2703 298.612 27.1249V18.5087Z" fill="white"/>
<path d="M314.973 20.2177H312.555V27.1255C312.555 27.2708 312.446 27.3801 312.301 27.3801H310.846C310.719 27.3801 310.61 27.2708 310.61 27.1255V20.2177H308.174C308.047 20.2177 307.938 20.1084 307.938 19.9631V18.5087C307.938 18.3634 308.047 18.2542 308.174 18.2542H314.973C315.118 18.2542 315.227 18.3634 315.227 18.5087V19.9631C315.227 20.1084 315.118 20.2177 314.973 20.2177Z" fill="white"/>
<path d="M316.7 18.5087C316.7 18.3634 316.809 18.2542 316.955 18.2542H318.391C318.536 18.2542 318.645 18.3634 318.645 18.5087V24.0709L322.535 18.3814C322.59 18.3088 322.644 18.2542 322.735 18.2542H324.317C324.444 18.2542 324.553 18.3634 324.553 18.5087V27.1249C324.553 27.2703 324.444 27.3795 324.317 27.3795H322.844C322.716 27.3795 322.608 27.2703 322.608 27.1249V21.5627L318.736 27.2522C318.681 27.3249 318.609 27.3795 318.518 27.3795H316.955C316.809 27.3795 316.7 27.2703 316.7 27.1249V18.5087Z" fill="white"/>
<path d="M332.552 24.326H330.789L328.989 27.2347C328.953 27.3074 328.88 27.38 328.771 27.38H327.153C327.007 27.38 326.899 27.2708 326.899 27.1254C326.899 27.1074 326.899 27.0708 326.917 27.0342L328.68 24.1987C327.462 23.8535 326.681 22.8356 326.681 21.4354V21.1447C326.681 19.3997 327.898 18.2546 329.643 18.2546H334.26C334.388 18.2546 334.497 18.3639 334.497 18.5092V27.1254C334.497 27.2708 334.388 27.38 334.26 27.38H332.788C332.661 27.38 332.552 27.2708 332.552 27.1254V24.326ZM332.552 22.3445V20.1996H329.643C328.88 20.1996 328.626 20.6355 328.626 21.1447V21.4174C328.626 21.9265 328.88 22.3445 329.643 22.3445H332.552Z" fill="white"/>
<path d="M217.477 44.5625H216.041C215.896 44.5625 215.787 44.4538 215.787 44.3079V33.4747H210.733V44.3079C210.733 44.4538 210.625 44.5625 210.497 44.5625H209.025C208.897 44.5625 208.788 44.4538 208.788 44.3079V31.7838C208.788 31.6385 208.897 31.5298 209.025 31.5298H217.477C217.623 31.5298 217.732 31.6385 217.732 31.7838V44.3079C217.732 44.4538 217.623 44.5625 217.477 44.5625Z" fill="white"/>
<path d="M227.858 41.4723C227.858 43.2539 226.349 44.7257 224.64 44.7257C224.458 44.7257 224.113 44.6896 223.895 44.635L221.986 44.2171V48.2162C221.986 48.3621 221.878 48.4708 221.75 48.4708H220.278C220.15 48.4708 220.041 48.3621 220.041 48.2162V35.6921C220.041 35.5468 220.15 35.4375 220.278 35.4375H221.296C221.424 35.4375 221.514 35.5288 221.55 35.6375L221.623 36.3286L223.895 35.3649C224.076 35.2922 224.422 35.2742 224.604 35.2742C226.313 35.2742 227.858 36.6739 227.858 38.4549V41.4723ZM225.894 38.4543C225.894 37.6911 225.294 37.2546 224.586 37.2546C224.494 37.2546 224.04 37.2726 223.895 37.3278L221.986 38.0364V42.2355L224.331 42.7447C224.421 42.7622 224.494 42.7622 224.585 42.7622C225.294 42.7622 225.894 42.235 225.894 41.4717V38.4543H225.894Z" fill="white"/>
<path d="M237.911 41.3084C237.911 43.108 236.456 44.5623 234.657 44.5623H233.348C231.549 44.5623 230.095 43.108 230.095 41.3084V38.6915C230.095 36.8918 231.549 35.4375 233.348 35.4375H234.657C236.456 35.4375 237.911 36.8918 237.911 38.6915V41.3084ZM235.948 38.6909C235.948 37.9818 235.367 37.4005 234.657 37.4005H233.348C232.64 37.4005 232.04 37.9818 232.04 38.6909V41.3078C232.04 42.0175 232.64 42.5988 233.348 42.5988H234.657C235.367 42.5988 235.948 42.0175 235.948 41.3078V38.6909Z" fill="white"/>
<path d="M242.402 35.5463L244.655 39.7634L246.909 35.5463C246.945 35.4916 247.037 35.437 247.109 35.437H248.872C249 35.437 249.109 35.5463 249.109 35.6916V44.3078C249.109 44.4537 249 44.5624 248.872 44.5624H247.4C247.273 44.5624 247.164 44.4537 247.164 44.3078V38.909L245.418 42.2536C245.382 42.3263 245.291 42.3629 245.2 42.3629H244.091C244.001 42.3629 243.928 42.3263 243.891 42.2536L242.146 38.909V44.3078C242.146 44.4537 242.038 44.5624 241.91 44.5624H240.438C240.31 44.5624 240.201 44.4537 240.201 44.3078V35.6916C240.201 35.5463 240.31 35.437 240.438 35.437H242.201C242.274 35.437 242.365 35.4922 242.402 35.5463Z" fill="white"/>
<path d="M255.891 38.4364C257.636 38.4364 258.853 39.5815 258.853 41.327V41.6723C258.853 43.4173 257.636 44.5624 255.891 44.5624H251.637C251.509 44.5624 251.4 44.4537 251.4 44.3078V35.6916C251.4 35.5463 251.509 35.437 251.637 35.437H253.109C253.237 35.437 253.345 35.5463 253.345 35.6916V38.4364H255.891ZM253.346 40.3813V42.6175H255.891C256.654 42.6175 256.909 42.1815 256.909 41.6723V41.3084C256.909 40.8004 256.655 40.3813 255.891 40.3813H253.346ZM261.707 44.3078C261.707 44.4537 261.598 44.5624 261.471 44.5624H259.999C259.871 44.5624 259.763 44.4537 259.763 44.3078V35.6916C259.763 35.5463 259.871 35.437 259.999 35.437H261.471C261.598 35.437 261.707 35.5463 261.707 35.6916V44.3078Z" fill="white"/>
<path d="M264.235 44.5624C264.108 44.5624 263.999 44.4537 263.999 44.3078V35.6916C263.999 35.5463 264.108 35.437 264.235 35.437H265.707C265.835 35.437 265.944 35.5463 265.944 35.6916V42.6175H268.797V35.6916C268.797 35.5463 268.906 35.437 269.052 35.437H270.506C270.633 35.437 270.742 35.5463 270.742 35.6916V42.6175H273.596V35.6916C273.596 35.5463 273.705 35.437 273.85 35.437H275.305C275.432 35.437 275.541 35.5463 275.541 35.6916V44.3078C275.541 44.4537 275.432 44.5624 275.305 44.5624H264.235Z" fill="white"/>
<path d="M279.196 35.6916C279.215 35.5463 279.305 35.437 279.433 35.437H285.395C285.523 35.437 285.649 35.5463 285.668 35.6916V44.3078C285.668 44.4537 285.559 44.5624 285.432 44.5624H283.977C283.831 44.5624 283.723 44.4537 283.723 44.3078V37.382H280.96L280.633 41.545C280.487 43.3812 279.669 44.5624 277.724 44.5624H277.106C276.979 44.5624 276.869 44.4537 276.869 44.3078V42.854C276.869 42.7082 276.979 42.5994 277.106 42.5994H277.724C278.252 42.5994 278.579 42.1995 278.615 41.545L279.196 35.6916Z" fill="white"/>
<path d="M292.521 44.5623H291.212C289.413 44.5623 287.959 43.108 287.959 41.3084V38.6915C287.959 36.8918 289.413 35.4375 291.212 35.4375H292.521C294.32 35.4375 295.775 36.8918 295.775 38.6915V40.3818C295.775 40.5277 295.666 40.6364 295.52 40.6364H289.903V41.3084C289.903 42.0181 290.503 42.5994 291.212 42.5994H292.521C293.284 42.5994 293.72 42.1814 293.72 41.6722C293.72 41.5264 293.829 41.4176 293.956 41.4176H295.429C295.557 41.4176 295.665 41.5264 295.665 41.6722C295.666 43.4533 294.266 44.5623 292.521 44.5623ZM293.812 38.6909C293.812 37.9818 293.23 37.4005 292.521 37.4005H291.212C290.504 37.4005 289.904 37.9818 289.904 38.6909V38.9275H293.812V38.6909Z" fill="white"/>
<path d="M298.066 35.6916C298.066 35.5463 298.175 35.437 298.303 35.437H299.775C299.903 35.437 300.011 35.5463 300.011 35.6916V38.8363H303.774V35.6916C303.774 35.5463 303.883 35.437 304.029 35.437H305.483C305.61 35.437 305.719 35.5463 305.719 35.6916V44.3078C305.719 44.4537 305.61 44.5624 305.483 44.5624H304.029C303.883 44.5624 303.774 44.4537 303.774 44.3078V40.7812H300.011V44.3078C300.011 44.4537 299.903 44.5624 299.775 44.5624H298.303C298.175 44.5624 298.066 44.4537 298.066 44.3078V35.6916Z" fill="white"/>
<path d="M308.01 35.6916C308.01 35.5463 308.119 35.437 308.247 35.437H309.719C309.846 35.437 309.955 35.5463 309.955 35.6916V38.8363H313.718V35.6916C313.718 35.5463 313.827 35.437 313.972 35.437H315.427C315.554 35.437 315.663 35.5463 315.663 35.6916V44.3078C315.663 44.4537 315.554 44.5624 315.427 44.5624H313.972C313.827 44.5624 313.718 44.4537 313.718 44.3078V40.7812H309.955V44.3078C309.955 44.4537 309.846 44.5624 309.719 44.5624H308.247C308.119 44.5624 308.01 44.4537 308.01 44.3078V35.6916Z" fill="white"/>
<path d="M325.771 41.3084C325.771 43.108 324.317 44.5623 322.518 44.5623H321.209C319.41 44.5623 317.955 43.108 317.955 41.3084V38.6915C317.955 36.8918 319.41 35.4375 321.209 35.4375H322.518C324.317 35.4375 325.771 36.8918 325.771 38.6915V41.3084ZM323.808 38.6909C323.808 37.9818 323.226 37.4005 322.517 37.4005H321.208C320.5 37.4005 319.9 37.9818 319.9 38.6909V41.3078C319.9 42.0175 320.5 42.5988 321.208 42.5988H322.517C323.226 42.5988 323.808 42.0175 323.808 41.3078V38.6909Z" fill="white"/>
<path d="M335.679 41.3084C335.679 43.108 334.225 44.5623 332.425 44.5623H331.316C329.517 44.5623 328.062 43.108 328.062 41.3084V38.6915C328.062 36.8918 329.517 35.4375 331.316 35.4375H332.425C333.897 35.4375 335.134 36.4193 335.534 37.7829C335.534 37.819 335.552 37.8556 335.552 37.8736C335.552 37.9823 335.461 38.073 335.352 38.0922L333.88 38.3462C333.753 38.3462 333.661 38.3101 333.625 38.2009C333.426 37.7277 332.953 37.401 332.426 37.401H331.316C330.608 37.401 330.008 37.9823 330.008 38.6915V41.3084C330.008 42.0181 330.608 42.5994 331.316 42.5994H332.426C333.135 42.5994 333.735 42.0181 333.735 41.3084V40.8178C333.735 40.6725 333.843 40.5637 333.971 40.5637H335.443C335.57 40.5637 335.679 40.6725 335.679 40.8178V41.3084H335.679Z" fill="white"/>
<path d="M343.405 37.4005H340.988V44.3078C340.988 44.4537 340.878 44.5624 340.733 44.5624H339.279C339.151 44.5624 339.043 44.4537 339.043 44.3078V37.4005H336.607C336.479 37.4005 336.371 37.2913 336.371 37.1459V35.6916C336.371 35.5463 336.479 35.437 336.607 35.437H343.405C343.551 35.437 343.66 35.5463 343.66 35.6916V37.1459C343.66 37.2913 343.551 37.4005 343.405 37.4005Z" fill="white"/>
<path d="M345.133 35.6914C345.133 35.5461 345.241 35.4368 345.387 35.4368H346.823C346.969 35.4368 347.078 35.5461 347.078 35.6914V41.2542L350.967 35.5641C351.022 35.4915 351.076 35.4363 351.167 35.4363H352.749C352.876 35.4363 352.985 35.5456 352.985 35.6909V44.3071C352.985 44.453 352.876 44.5617 352.749 44.5617H351.277C351.149 44.5617 351.04 44.453 351.04 44.3071V38.7449L347.168 44.4349C347.114 44.5076 347.041 44.5622 346.95 44.5622H345.387C345.241 44.5622 345.133 44.4535 345.133 44.3076V35.6914Z" fill="white"/>
</svg>
