<svg width="27" height="53" viewBox="0 0 27 53" fill="none" xmlns="http://www.w3.org/2000/svg">
<path d="M25.483 15.9148C20.1169 16.342 15.8827 20.8451 15.8827 26.3191C15.8827 31.793 20.1169 36.2961 25.483 36.7234V51.6381H21.8621C21.593 51.6381 21.3608 51.4506 21.3042 51.1882L21.3038 51.1862L20.423 47.1408C20.3475 46.7939 20.0937 46.513 19.7561 46.4029C18.7286 46.0675 17.7267 45.6509 16.7581 45.1601C16.4416 44.9997 16.0637 45.0191 15.7653 45.211L12.2832 47.4499C12.2831 47.45 12.2831 47.45 12.283 47.45C12.0541 47.5966 11.7574 47.5632 11.5688 47.3742L11.5679 47.3733L5.26512 41.0728C5.26489 41.0725 5.26466 41.0723 5.26443 41.0721C5.07351 40.8797 5.04244 40.5819 5.18751 40.3561L7.42712 36.8728C7.61929 36.574 7.63843 36.1956 7.47741 35.8788C6.98646 34.9131 6.57089 33.9094 6.23518 32.8817C6.12493 32.5442 5.84402 32.2905 5.49709 32.2151L1.45166 31.3354L1.45142 31.3354C1.18748 31.2781 1 31.0449 1 30.7761V21.8621C1 21.5933 1.18748 21.3601 1.45142 21.3028L1.45166 21.3027L5.49709 20.4231C5.84412 20.3476 6.1251 20.0938 6.23528 19.7561C6.57087 18.7278 6.98636 17.7252 7.47741 16.7593C7.63843 16.4425 7.61929 16.0642 7.42712 15.7653L5.18751 12.2821C5.1875 12.2821 5.18749 12.282 5.18747 12.282C5.18742 12.2819 5.18737 12.2819 5.18732 12.2818C5.04243 12.056 5.07361 11.7583 5.26455 11.566C5.26474 11.5658 5.26493 11.5656 5.26512 11.5654L11.5679 5.26485L11.5688 5.26396C11.7573 5.0751 12.0537 5.0416 12.2826 5.18783C12.2828 5.18796 12.283 5.18808 12.2832 5.18821L15.7653 7.42712C16.064 7.6192 16.4422 7.63842 16.7589 7.47761C17.7264 6.98628 18.728 6.57078 19.7561 6.23528C20.0937 6.12513 20.3475 5.84427 20.423 5.49735L21.3038 1.45192L21.3042 1.44996C21.3608 1.18754 21.593 1 21.8621 1H25.483V15.9148Z" stroke="#163D9F" stroke-width="2" stroke-miterlimit="2" stroke-linejoin="round"/>
</svg>
