<svg width="44" height="44" viewBox="0 0 44 44" fill="none" xmlns="http://www.w3.org/2000/svg">
<path d="M30.299 13.701L19.1719 19.172L13.7009 30.299L24.8279 24.828L30.299 13.701Z" stroke="#2A3F9B" stroke-width="2" stroke-miterlimit="10" stroke-linejoin="round"/>
<path d="M19.1719 19.172L24.8279 24.828" stroke="#2A3F9B" stroke-width="2" stroke-miterlimit="10" stroke-linejoin="round"/>
<path d="M22 43C33.598 43 43 33.598 43 22C43 10.402 33.598 1 22 1C10.402 1 1 10.402 1 22C1 33.598 10.402 43 22 43Z" stroke="#2A3F9B" stroke-width="2" stroke-miterlimit="10" stroke-linejoin="round"/>
<path d="M38 20.136C37.146 12.727 31.273 6.855 23.864 6L22 9.107L20.136 6C12.728 6.854 6.855 12.728 6 20.136L9.10699 22L6 23.864C6.854 31.272 12.728 37.145 20.136 38L22 34.893L23.864 38C31.272 37.146 37.145 31.272 38 23.864L34.893 22L38 20.136Z" stroke="#2A3F9B" stroke-width="2" stroke-miterlimit="10" stroke-linejoin="round"/>
</svg>
