<svg width="39" height="47" viewBox="0 0 39 47" fill="none" xmlns="http://www.w3.org/2000/svg">
<path d="M34 43V41" stroke="#2A3F9B" stroke-width="2" stroke-miterlimit="10" stroke-linejoin="round"/>
<path d="M34 39V37" stroke="#2A3F9B" stroke-width="2" stroke-miterlimit="10" stroke-linejoin="round"/>
<path d="M34 35V17H38L30 6L22 17H26V22" stroke="#2A3F9B" stroke-width="2" stroke-miterlimit="10" stroke-linejoin="round"/>
<path d="M5 43V41" stroke="#2A3F9B" stroke-width="2" stroke-miterlimit="10" stroke-linejoin="round"/>
<path d="M5 39V37" stroke="#2A3F9B" stroke-width="2" stroke-miterlimit="10" stroke-linejoin="round"/>
<path d="M5 35V14H1L10 1L19 14H15V18" stroke="#2A3F9B" stroke-width="2" stroke-miterlimit="10" stroke-linejoin="round"/>
<path d="M10 24V36" stroke="#2A3F9B" stroke-width="2" stroke-miterlimit="10" stroke-linejoin="round"/>
<path d="M13 31H20" stroke="#2A3F9B" stroke-width="2" stroke-miterlimit="10"/>
<path d="M15 27.6667H20.3333C21.8062 27.6667 23 26.5475 23 25.1667V23.5C23 22.1192 21.8062 21 20.3333 21H15V36" stroke="#2A3F9B" stroke-width="2" stroke-miterlimit="10"/>
<path d="M13 28H15" stroke="#2A3F9B" stroke-width="2" stroke-miterlimit="10"/>
<path d="M15 47V39" stroke="#2A3F9B" stroke-width="2" stroke-miterlimit="10" stroke-linejoin="round"/>
<path d="M26 27V35" stroke="#2A3F9B" stroke-width="2" stroke-miterlimit="10" stroke-linejoin="round"/>
</svg>
