<svg width="48" height="46" viewBox="0 0 48 46" fill="none" xmlns="http://www.w3.org/2000/svg">
<path d="M29.5 21H34.5" stroke="#2A3F9B" stroke-width="2" stroke-miterlimit="10" stroke-linecap="round" stroke-linejoin="round"/>
<path d="M32 21V13H30" stroke="#2A3F9B" stroke-width="2" stroke-miterlimit="10" stroke-linecap="round" stroke-linejoin="round"/>
<path d="M32 8.5V9.5" stroke="#2A3F9B" stroke-width="2" stroke-miterlimit="10" stroke-linecap="round" stroke-linejoin="round"/>
<path d="M9 37.645V41.046C9 41.945 8.34199 42.734 7.38699 42.982L1 45" stroke="#2A3F9B" stroke-width="2" stroke-miterlimit="10" stroke-linecap="round" stroke-linejoin="round"/>
<path d="M17 39.766V41.046C17 41.945 17.658 42.734 18.613 42.982L25 45" stroke="#2A3F9B" stroke-width="2" stroke-miterlimit="10" stroke-linecap="round" stroke-linejoin="round"/>
<path d="M11.6141 39.015C8.38611 38.175 5.96509 34.708 5.96509 31.276V26.517C5.96509 24.931 8.27308 23.126 10.8731 22.023" stroke="#2A3F9B" stroke-width="2" stroke-miterlimit="10" stroke-linecap="round" stroke-linejoin="round"/>
<path d="M9.92993 19.378C9.92993 23.344 17.9999 27 20.8269 26.896" stroke="#2A3F9B" stroke-width="2" stroke-miterlimit="10" stroke-linecap="round" stroke-linejoin="round"/>
<path d="M20 33V27" stroke="#2A3F9B" stroke-width="2" stroke-miterlimit="10" stroke-linecap="round" stroke-linejoin="round"/>
<path d="M15 38V40C19.8 40 23 36.172 23 33L25 32V26L23 25V24C23 18.306 18.744 13.033 13 13.033C7.256 13.033 3 17.649 3 23.344V25L1 26V32L3.39999 33.051" stroke="#2A3F9B" stroke-width="2" stroke-miterlimit="10" stroke-linecap="round" stroke-linejoin="round"/>
<path d="M28.2199 30.503C28.8009 30.654 29.0869 30.71 29.6929 30.791C29.6929 30.791 29.6669 34.479 29.0419 37C33.6249 35.667 35.9149 30.483 35.9149 30.483L35.8659 30.479C42.2729 28.771 46.9999 22.945 46.9999 16C46.9999 7.716 40.2839 1 31.9999 1C25.6439 1 20.2109 4.95301 18.0259 10.535" stroke="#2A3F9B" stroke-width="2" stroke-miterlimit="10" stroke-linecap="round" stroke-linejoin="round"/>
</svg>
