<svg width="51" height="50" viewBox="0 0 51 50" fill="none" xmlns="http://www.w3.org/2000/svg">
<path d="M25.4428 14.4437C27.4677 14.4437 29.1093 12.8021 29.1093 10.7772C29.1093 8.75228 27.4677 7.11075 25.4428 7.11075C23.4179 7.11075 21.7764 8.75228 21.7764 10.7772C21.7764 12.8021 23.4179 14.4437 25.4428 14.4437Z" stroke="white" stroke-width="2" stroke-miterlimit="10" stroke-linecap="round" stroke-linejoin="round"/>
<path d="M30.3319 32.9238C27.5063 34.636 25.7781 33.3503 26.707 29.9625C26.707 29.9625 28.077 25.3722 28.5195 23.8384C30.4248 17.2375 24.6623 18.3228 18.1104 24.2722C21.2696 22.4047 22.4661 23.8689 21.5482 26.8351C21.0875 28.3261 19.8287 32.8285 19.8287 32.8285C18.5283 38.1717 22.6176 40.2567 30.3319 32.9238Z" stroke="white" stroke-width="2" stroke-miterlimit="10" stroke-linecap="round" stroke-linejoin="round"/>
<path d="M25.443 1C11.9431 1 1 10.5756 1 22.3877C1 29.2647 4.72509 35.3669 10.4888 39.279C9.86424 43.4123 8.2889 47.2878 7.15596 49C12.2976 47.9514 16.712 45.6782 19.9495 43.2131C21.7179 43.5688 23.5511 43.7753 25.443 43.7753C38.9429 43.7753 49.8861 34.1997 49.8861 22.3877C49.8861 10.5756 38.9429 1 25.443 1Z" stroke="white" stroke-width="2" stroke-miterlimit="10" stroke-linejoin="round"/>
</svg>
