<svg width="40" height="50" viewBox="0 0 40 50" fill="none" xmlns="http://www.w3.org/2000/svg">
<path d="M19.5455 1C9.30291 1 1 9.30291 1 19.5455C1 27.7033 6.27455 34.6153 13.5935 37.0971L19.5455 49L25.4964 37.0971C32.8164 34.6153 38.0909 27.7033 38.0909 19.5455C38.0909 9.30291 29.788 1 19.5455 1Z" stroke="white" stroke-width="2" stroke-miterlimit="10" stroke-linejoin="round"/>
<path d="M20.6364 38.0593C20.2753 38.08 19.912 38.0909 19.5455 38.0909C17.2415 38.0909 15.0356 37.6709 13 36.9029" stroke="white" stroke-width="2" stroke-miterlimit="10"/>
<path d="M19.5813 7.54544L22.9642 14.3985L30.5275 15.4982L25.0544 20.8327L26.346 28.3643L19.5813 24.8091L12.8177 28.3643L14.1093 20.8327L8.63623 15.4982L16.1995 14.3985L19.5813 7.54544Z" stroke="white" stroke-width="2" stroke-miterlimit="10"/>
</svg>
