<svg width="50" height="50" viewBox="0 0 50 50" fill="none" xmlns="http://www.w3.org/2000/svg">
<path d="M25 49C38.2548 49 49 38.2548 49 25C49 11.7452 38.2548 1 25 1C11.7452 1 1 11.7452 1 25C1 38.2548 11.7452 49 25 49Z" stroke="white" stroke-width="2" stroke-miterlimit="10" stroke-linejoin="round"/>
<path d="M24.9999 32.2C23.0115 32.2 21.3999 33.8116 21.3999 35.8C21.3999 37.7884 23.0115 39.4 24.9999 39.4C26.9883 39.4 28.5999 37.7884 28.5999 35.8C28.5999 33.8116 26.9883 32.2 24.9999 32.2Z" stroke="white" stroke-width="2" stroke-miterlimit="10" stroke-linejoin="round"/>
<path d="M25 27.4C26.3044 27.4 27.1 26.6872 27.4 25.6C27.7 24.5128 28.3372 17.0812 28.6 13.1332C28.7452 10.9504 26.9884 9.39999 25 9.39999C23.0116 9.39999 21.2548 10.9504 21.4 13.1332C21.6628 17.0812 22.3 24.5116 22.6 25.6C22.9 26.6884 23.6956 27.4 25 27.4Z" stroke="white" stroke-width="2" stroke-miterlimit="10" stroke-linejoin="round"/>
</svg>
