<svg width="375" height="250" viewBox="0 0 375 250" fill="none" xmlns="http://www.w3.org/2000/svg">
<g opacity="0.06" clip-path="url(#clip0_148_698)">
<path d="M328.023 232.679H832.822V246.51H328.023V232.679Z" fill="#010303"/>
<path d="M344 156.908H429.85V161.083H344V156.908Z" fill="#010303"/>
<path d="M426.282 238.99V155.834L386.923 133.133L347.566 155.834V238.99H426.282Z" fill="#010303"/>
<path d="M318.41 238.991V60.6273C318.41 56.0686 314.711 52.3735 310.145 52.3735C305.582 52.3735 301.88 56.0686 301.88 60.6273V238.991H318.41Z" fill="#010303"/>
<path d="M361.244 238.991V43.2613C361.244 33.8291 353.588 26.1805 344.146 26.1805C334.702 26.1805 327.048 33.8291 327.048 43.2613V238.991H361.244Z" fill="#010303"/>
<path d="M360.765 26.1752V30.0888C360.765 35.4767 353.109 39.8435 343.667 39.8435C334.223 39.8435 326.569 35.4767 326.569 30.0888V26.1752H360.765Z" fill="#010303"/>
<path d="M333.767 17.963H353.64V30.2851H333.767V17.963Z" fill="#010303"/>
<path d="M311.564 74.0099V77.2064C320.843 79.8937 327.646 88.4541 327.646 98.5767V228.822H330.731V98.5767C330.731 86.7212 322.575 76.7692 311.564 74.0099Z" fill="#010303"/>
<path d="M327.647 165.774V174.82H330.731V165.774C330.731 153.919 322.576 143.967 311.565 141.207V144.404C320.842 147.091 327.647 155.652 327.647 165.774Z" fill="#010303"/>
<path d="M327.647 138.285V147.33H330.731V138.285C330.731 126.429 322.576 116.477 311.565 113.718V116.914C320.842 119.602 327.647 128.162 327.647 138.285Z" fill="#010303"/>
<path d="M1022.56 238.95H-68.9995V250.019H1022.56V238.95Z" fill="#010303"/>
<path d="M293.637 131.474H142.99V172.053H293.637V131.474Z" fill="#010303"/>
<path d="M293.624 89.3965L196.764 126.104L196.77 151.635L293.64 151.66L293.624 89.3965Z" fill="#010303"/>
<path d="M333.333 233.27H329.504V220.069C329.504 212.471 323.315 206.288 315.707 206.288H311.627V183.302H322.987C328.7 183.302 333.333 187.928 333.333 193.638V233.27ZM326.056 233.27H311.627V209.733H315.707C321.423 209.733 326.056 214.361 326.056 220.069V233.27ZM261.956 198.554H237.084V189.613H261.956V198.554ZM261.956 212.902H237.084V203.961H261.956V212.902ZM231.026 198.554H206.155V189.613H231.026V198.554ZM231.026 212.902H206.155V203.961H231.026V212.902ZM200.094 198.554H175.223V189.613H200.094V198.554ZM200.094 212.902H175.223V203.961H200.094V212.902ZM169.165 198.554H144.293V189.613H169.165V198.554ZM169.165 212.902H144.293V203.961H169.165V212.902ZM138.233 198.554H113.361V189.613H138.233V198.554ZM138.233 212.902H113.361V203.961H138.233V212.902ZM338.932 233.27H336.781V193.638C336.781 186.038 330.593 179.855 322.987 179.855H311.627V157.906H112.006V179.989H259.746V182.196H105.377V233.27H104.411V244.553H338.932V233.27Z" fill="#010303"/>
<path d="M173.067 78.981L171.716 138.308L188.827 138.307L187.499 78.9806L173.067 78.981Z" fill="#010303"/>
<path d="M146.548 78.9805L145.197 138.307L162.33 138.307L160.98 78.9801L146.548 78.9805Z" fill="#010303"/>
<path d="M134.203 78.9805H119.771L116.969 162.764L137.008 161.652L134.203 78.9805Z" fill="#010303"/>
<path d="M101.237 218.847H86.9895V213.24H101.237V218.847ZM101.237 228.554H86.9895V222.947H101.237V228.554ZM80.9451 218.847H66.6973V213.24H80.9451V218.847ZM80.9451 228.554H66.6973V222.947H80.9451V228.554ZM60.6529 218.847H46.4051V213.24H60.6529V218.847ZM60.6529 228.554H46.4051V222.947H60.6529V228.554ZM40.358 218.847H26.1102V213.24H40.358V218.847ZM40.358 228.554H26.1102V222.947H40.358V228.554ZM20.0658 218.847H5.81797V213.24H20.0658V218.847ZM20.0658 228.554H5.81797V222.947H20.0658V228.554ZM-9.17969 194.909L-0.872263 248.394H53.3115V240.198H73.1741V248.394H80.0805V240.198H99.943V248.394H107.714V194.909H-9.17969Z" fill="#010303"/>
<path d="M61.7015 154.185H54.7256V146.419H61.7015V154.185ZM61.7015 167.168H54.7256V159.399H61.7015V167.168ZM61.7015 180.151H54.7256V172.383H61.7015V180.151ZM49.1776 154.185H42.2018V146.419H49.1776V154.185ZM49.1776 167.168H42.2018V159.399H49.1776V167.168ZM49.1776 180.151H42.2018V172.383H49.1776V180.151ZM36.6511 154.185H29.6753V146.419H36.6511V154.185ZM36.6511 167.168H29.6753V159.399H36.6511V167.168ZM36.6511 180.151H29.6753V172.383H36.6511V180.151ZM24.1272 154.185H17.1541V146.419H24.1272V154.185ZM24.1272 167.168H17.1541V159.399H24.1272V167.168ZM24.1272 180.151H17.1541V172.383H24.1272V180.151ZM64.5569 139.917V122.926L56.0066 127.994V122.926L47.0854 128.216V122.926L25.4108 135.771V139.917H5.2627V149.693H12.1691V182.076L13.9784 195.051H67.4363V139.917H64.5569Z" fill="#010303"/>
</g>
<defs>
<clipPath id="clip0_148_698">
<rect width="1092" height="250" fill="white" transform="translate(-69)"/>
</clipPath>
</defs>
</svg>
