<svg width="2560" height="440" viewBox="0 0 2560 440" fill="none" xmlns="http://www.w3.org/2000/svg">
<g opacity="0.06">
<g clip-path="url(#clip0_157_2292)">
<path d="M1504.91 327.129H1635.98V422.627H1504.91V327.129Z" fill="#010303"/>
<path d="M1285.83 351.468H1581.68V431.984H1285.83V351.468Z" fill="#010303"/>
<path d="M1018.06 409.516H1905.62V433.858H1018.06V409.516Z" fill="#010303"/>
<path d="M1695.9 276.158H1879.82V283.505H1695.9V276.158Z" fill="#010303"/>
<path d="M1799.02 226.062H1809.7V250.104H1799.02V226.062Z" fill="#010303"/>
<path d="M1873.56 420.623V274.267L1804.36 234.314L1735.15 274.267V420.623H1873.56Z" fill="#010303"/>
<path d="M1192.21 276.158H1343.15V283.505H1192.21V276.158Z" fill="#010303"/>
<path d="M1262.34 226.062H1273.02V250.104H1262.34V226.062Z" fill="#010303"/>
<path d="M1336.88 420.623V274.267L1267.68 234.314L1198.48 274.267V420.623H1336.88Z" fill="#010303"/>
<path d="M1046.16 276.158H1197.1V283.505H1046.16V276.158Z" fill="#010303"/>
<path d="M1116.28 226.062H1126.97V250.104H1116.28V226.062Z" fill="#010303"/>
<path d="M1190.83 420.623V274.267L1121.62 234.314L1052.42 274.267V420.623H1190.83Z" fill="#010303"/>
<path d="M1768.79 381.063L1767.19 130.516L1750.81 130.512L1749.21 381.061L1768.79 381.063Z" fill="#010303"/>
<path d="M1798.89 381.062L1797.32 130.514L1780.93 130.514L1779.33 381.063L1798.89 381.062Z" fill="#010303"/>
<path d="M1001.16 420.623V106.704C1001.16 98.6806 994.656 92.1774 986.628 92.1774C978.605 92.1774 972.097 98.6806 972.097 106.704V420.623H1001.16Z" fill="#010303"/>
<path d="M1705.41 420.623V76.1398C1705.41 59.5392 1691.95 46.0776 1675.34 46.0776C1658.74 46.0776 1645.28 59.5392 1645.28 76.1398V420.623H1705.41Z" fill="#010303"/>
<path d="M1705.41 46.0683V52.9563C1705.41 62.439 1691.95 70.1246 1675.34 70.1246C1658.74 70.1246 1645.28 62.439 1645.28 52.9563V46.0683H1705.41Z" fill="#010303"/>
<path d="M1657.93 31.6149H1692.87V53.3018H1657.93V31.6149Z" fill="#010303"/>
<path d="M1076.47 420.623V76.1398C1076.47 59.5392 1063.01 46.0776 1046.41 46.0776C1029.81 46.0776 1016.35 59.5392 1016.35 76.1398V420.623H1076.47Z" fill="#010303"/>
<path d="M1075.63 46.0683V52.9563C1075.63 62.439 1062.17 70.1246 1045.57 70.1246C1028.96 70.1246 1015.51 62.439 1015.51 52.9563V46.0683H1075.63Z" fill="#010303"/>
<path d="M1028.16 31.6149H1063.1V53.3018H1028.16V31.6149Z" fill="#010303"/>
<path d="M989.124 130.258V135.883C1005.44 140.613 1017.4 155.679 1017.4 173.495V402.727H1022.82V173.495C1022.82 152.629 1008.48 135.114 989.124 130.258Z" fill="#010303"/>
<path d="M1017.4 291.763V307.683H1022.82V291.763C1022.82 270.897 1008.49 253.381 989.126 248.525V254.151C1005.44 258.88 1017.4 273.947 1017.4 291.763Z" fill="#010303"/>
<path d="M1017.4 243.381V259.301H1022.82V243.381C1022.82 222.515 1008.49 205 989.126 200.143V205.769C1005.44 210.499 1017.4 225.565 1017.4 243.381Z" fill="#010303"/>
<path d="M2214 420.552H408V440.034H2214V420.552Z" fill="#010303"/>
<path d="M957.603 231.395H692.73V302.813H957.603V231.395Z" fill="#010303"/>
<path d="M957.604 157.338L787.279 221.97L787.279 266.896L957.604 266.897L957.604 157.338Z" fill="#010303"/>
<path d="M1027.4 410.556H1020.67V387.321C1020.67 373.948 1009.78 363.067 996.407 363.067H989.233V322.612H1009.21C1019.25 322.612 1027.4 330.753 1027.4 340.803V410.556ZM1014.6 410.556H989.233V369.129H996.407C1006.46 369.129 1014.6 377.275 1014.6 387.321V410.556ZM901.899 349.455H858.169V333.718H901.899V349.455ZM901.899 374.708H858.169V358.971H901.899V374.708ZM847.518 349.455H803.788V333.718H847.518V349.455ZM847.518 374.708H803.788V358.971H847.518V374.708ZM793.132 349.455H749.402V333.718H793.132V349.455ZM793.132 374.708H749.402V358.971H793.132V374.708ZM738.751 349.455H695.021V333.718H738.751V349.455ZM738.751 374.708H695.021V358.971H738.751V374.708ZM684.365 349.455H640.635V333.718H684.365V349.455ZM684.365 374.708H640.635V358.971H684.365V374.708ZM1037.24 410.556H1033.46V340.803C1033.46 327.426 1022.58 316.545 1009.21 316.545H989.233V277.915H638.251V316.78H898.014V320.665H626.596V410.556H624.897V430.413H1037.24V410.556Z" fill="#010303"/>
<path d="M745.61 139.007L743.236 243.421L773.324 243.42L770.987 139.006L745.61 139.007Z" fill="#010303"/>
<path d="M698.983 139.006L696.609 243.42L726.735 243.42L724.36 139.006L698.983 139.006Z" fill="#010303"/>
<path d="M677.28 139.006H651.905L646.979 286.464L682.211 284.507L677.28 139.006Z" fill="#010303"/>
<path d="M619.318 385.17H594.267V375.303H619.318V385.17ZM619.318 402.254H594.267V392.387H619.318V402.254ZM583.639 385.17H558.588V375.303H583.639V385.17ZM583.639 402.254H558.588V392.387H583.639V402.254ZM547.961 385.17H522.91V375.303H547.961V385.17ZM547.961 402.254H522.91V392.387H547.961V402.254ZM512.277 385.17H487.226V375.303H512.277V385.17ZM512.277 402.254H487.226V392.387H512.277V402.254ZM476.599 385.17H451.548V375.303H476.599V385.17ZM476.599 402.254H451.548V392.387H476.599V402.254ZM425.178 343.04L439.785 437.173H535.053V422.749H569.976V437.173H582.119V422.749H617.042V437.173H630.706V343.04H425.178Z" fill="#010303"/>
<path d="M549.805 271.365H537.54V257.697H549.805V271.365ZM549.805 294.216H537.54V280.543H549.805V294.216ZM549.805 317.066H537.54V303.393H549.805V317.066ZM527.785 271.365H515.52V257.697H527.785V271.365ZM527.785 294.216H515.52V280.543H527.785V294.216ZM527.785 317.066H515.52V303.393H527.785V317.066ZM505.76 271.365H493.495V257.697H505.76V271.365ZM505.76 294.216H493.495V280.543H505.76V294.216ZM505.76 317.066H493.495V303.393H505.76V317.066ZM483.74 271.365H471.48V257.697H483.74V271.365ZM483.74 294.216H471.48V280.543H483.74V294.216ZM483.74 317.066H471.48V303.393H483.74V317.066ZM554.825 246.253V216.35L539.792 225.27V216.35L524.106 225.66V216.35L485.997 238.957V246.253H450.572V263.459H462.715V320.454L465.896 343.29H559.888V246.253H554.825Z" fill="#010303"/>
<path d="M1956.9 226.361L1866.06 209.122V243.599L1956.9 226.361Z" fill="#010303"/>
<path d="M1959.73 276.509H1948.33V252.635H1959.73V276.509ZM1959.73 305.811H1948.33V281.932H1959.73V305.811ZM1959.73 335.113H1948.33V311.239H1959.73V335.113ZM1959.73 364.415H1948.33V340.541H1959.73V364.415ZM1959.73 393.717H1948.33V369.839H1959.73V393.717ZM1938.29 276.509H1926.89V252.635H1938.29V276.509ZM1938.29 305.811H1926.89V281.932H1938.29V305.811ZM1938.29 335.113H1926.89V311.239H1938.29V335.113ZM1938.29 364.415H1926.89V340.541H1938.29V364.415ZM1938.29 393.717H1926.89V369.839H1938.29V393.717ZM1916.86 276.509H1905.46V252.635H1916.86V276.509ZM1916.86 305.811H1905.46V281.932H1916.86V305.811ZM1916.86 335.113H1905.46V311.239H1916.86V335.113ZM1916.86 364.415H1905.46V340.541H1916.86V364.415ZM1916.86 393.717H1905.46V369.839H1916.86V393.717ZM1895.42 276.509H1884.03V252.635H1895.42V276.509ZM1895.42 305.811H1884.03V281.932H1895.42V305.811ZM1895.42 335.113H1884.03V311.239H1895.42V335.113ZM1895.42 364.415H1884.03V340.541H1895.42V364.415ZM1895.42 393.717H1884.03V369.839H1895.42V393.717ZM1873.99 276.509H1862.59V252.635H1873.99V276.509ZM1873.99 305.811H1862.59V281.932H1873.99V305.811ZM1873.99 335.113H1862.59V311.239H1873.99V335.113ZM1873.99 364.415H1862.59V340.541H1873.99V364.415ZM1873.99 393.717H1862.59V369.839H1873.99V393.717ZM1967.49 222.306L1853.43 243.955V429.316H1967.49V222.306Z" fill="#010303"/>
<path d="M2000.58 282.025H2165.08V343.609H2000.58V282.025Z" fill="#010303"/>
<path d="M2158.32 233.137L2147.74 236.811V216.55H2158.32V233.137ZM2124.95 229.899V213.787L2136.35 202.39V216.55H2138.3L2124.95 229.899ZM2121.7 233.156L2111.93 242.924V226.807L2121.7 217.043V233.156ZM2108.67 246.176L2098.91 255.945V239.832L2108.67 230.063V246.176ZM2095.65 259.201L2085.88 268.97V252.853L2095.65 243.089V259.201ZM2082.63 272.227L2072.86 281.991V265.878L2082.63 256.109V272.227ZM2166.46 230.312V216.55H2176.23V179.112H2136.35V193.179L2121.93 207.598H2121.7V207.832L2044.33 285.191H2053.55L2056.58 282.155V285.191H2059.84V278.899L2069.61 269.134V285.191H2078.87L2085.65 278.411H2085.88V278.176L2139.6 224.456V239.635L2133.42 241.784V332.942H2142.32V429.318H2195.77V220.135L2166.46 230.312Z" fill="#010303"/>
<path d="M2137.16 363.064H2106.03V350.855H2137.16V363.064ZM2137.16 383.409H2106.03V371.2H2137.16V383.409ZM2096.26 363.064H2065.13V350.855H2096.26V363.064ZM2096.26 383.409H2065.13V371.2H2096.26V383.409ZM2055.36 363.064H2024.23V350.855H2055.36V363.064ZM2055.36 383.409H2024.23V371.2H2055.36V383.409ZM2014.46 363.064H1983.33V350.855H2014.46V363.064ZM2014.46 383.409H1983.33V371.2H2014.46V383.409ZM1974.37 429.321H2145.61V340.186H1974.37V429.321Z" fill="#010303"/>
<path d="M2025.61 125.113L2024.72 296.904H2035.21L2048.4 283.71L2047.65 125.113H2025.61Z" fill="#010303"/>
<path d="M2009.52 345.296L2008.37 125.113L1985.92 125.113L1984.56 345.294L2009.52 345.296Z" fill="#010303"/>
</g>
<g clip-path="url(#clip1_157_2292)">
<path d="M4020 420.552H2214V440.034H4020V420.552Z" fill="#010303"/>
<path d="M2763.6 231.395H2498.73V302.813H2763.6V231.395Z" fill="#010303"/>
<path d="M2833.4 410.556H2826.67V387.321C2826.67 373.948 2815.78 363.067 2802.41 363.067H2795.23V322.612H2815.21C2825.25 322.612 2833.4 330.753 2833.4 340.803V410.556ZM2820.6 410.556H2795.23V369.129H2802.41C2812.46 369.129 2820.6 377.275 2820.6 387.321V410.556ZM2707.9 349.455H2664.17V333.718H2707.9V349.455ZM2707.9 374.708H2664.17V358.971H2707.9V374.708ZM2653.52 349.455H2609.79V333.718H2653.52V349.455ZM2653.52 374.708H2609.79V358.971H2653.52V374.708ZM2599.13 349.455H2555.4V333.718H2599.13V349.455ZM2599.13 374.708H2555.4V358.971H2599.13V374.708ZM2544.75 349.455H2501.02V333.718H2544.75V349.455ZM2544.75 374.708H2501.02V358.971H2544.75V374.708ZM2490.36 349.455H2446.63V333.718H2490.36V349.455ZM2490.36 374.708H2446.63V358.971H2490.36V374.708ZM2843.24 410.556H2839.46V340.803C2839.46 327.426 2828.58 316.545 2815.21 316.545H2795.23V277.915H2444.25V316.78H2704.01V320.665H2432.6V410.556H2430.9V430.413H2843.24V410.556Z" fill="#010303"/>
<path d="M2551.61 139.007L2549.24 243.421L2579.32 243.42L2576.99 139.006L2551.61 139.007Z" fill="#010303"/>
<path d="M2504.98 139.006L2502.61 243.42L2532.74 243.42L2530.36 139.006L2504.98 139.006Z" fill="#010303"/>
<path d="M2483.28 139.006H2457.91L2452.98 286.464L2488.21 284.507L2483.28 139.006Z" fill="#010303"/>
<path d="M2425.32 385.17H2400.27V375.303H2425.32V385.17ZM2425.32 402.254H2400.27V392.387H2425.32V402.254ZM2389.64 385.17H2364.59V375.303H2389.64V385.17ZM2389.64 402.254H2364.59V392.387H2389.64V402.254ZM2353.96 385.17H2328.91V375.303H2353.96V385.17ZM2353.96 402.254H2328.91V392.387H2353.96V402.254ZM2318.28 385.17H2293.23V375.303H2318.28V385.17ZM2318.28 402.254H2293.23V392.387H2318.28V402.254ZM2282.6 385.17H2257.55V375.303H2282.6V385.17ZM2282.6 402.254H2257.55V392.387H2282.6V402.254ZM2231.18 343.04L2245.78 437.173H2341.05V422.749H2375.98V437.173H2388.12V422.749H2423.04V437.173H2436.71V343.04H2231.18Z" fill="#010303"/>
<path d="M2355.8 271.365H2343.54V257.697H2355.8V271.365ZM2355.8 294.216H2343.54V280.543H2355.8V294.216ZM2355.8 317.066H2343.54V303.393H2355.8V317.066ZM2333.78 271.365H2321.52V257.697H2333.78V271.365ZM2333.78 294.216H2321.52V280.543H2333.78V294.216ZM2333.78 317.066H2321.52V303.393H2333.78V317.066ZM2311.76 271.365H2299.49V257.697H2311.76V271.365ZM2311.76 294.216H2299.49V280.543H2311.76V294.216ZM2311.76 317.066H2299.49V303.393H2311.76V317.066ZM2289.74 271.365H2277.48V257.697H2289.74V271.365ZM2289.74 294.216H2277.48V280.543H2289.74V294.216ZM2289.74 317.066H2277.48V303.393H2289.74V317.066ZM2360.83 246.253V216.35L2345.79 225.27V216.35L2330.11 225.66V216.35L2292 238.957V246.253H2256.57V263.459H2268.71V320.454L2271.9 343.29H2365.89V246.253H2360.83Z" fill="#010303"/>
</g>
<g clip-path="url(#clip2_157_2292)">
<path d="M-787.939 409.516H99.6206V433.858H-787.939V409.516Z" fill="#010303"/>
<path d="M-110.096 276.158H73.8242V283.505H-110.096V276.158Z" fill="#010303"/>
<path d="M-6.9847 226.062H3.69922V250.104H-6.9847V226.062Z" fill="#010303"/>
<path d="M67.5558 420.623V274.267L-1.64311 234.314L-70.8467 274.267V420.623H67.5558Z" fill="#010303"/>
<path d="M408 420.552H-1398V440.034H408V420.552Z" fill="#010303"/>
<path d="M150.899 226.361L60.0645 209.122V243.599L150.899 226.361Z" fill="#010303"/>
<path d="M153.725 276.509H142.328V252.635H153.725V276.509ZM153.725 305.811H142.328V281.932H153.725V305.811ZM153.725 335.113H142.328V311.239H153.725V335.113ZM153.725 364.415H142.328V340.541H153.725V364.415ZM153.725 393.717H142.328V369.839H153.725V393.717ZM132.292 276.509H120.894V252.635H132.292V276.509ZM132.292 305.811H120.894V281.932H132.292V305.811ZM132.292 335.113H120.894V311.239H132.292V335.113ZM132.292 364.415H120.894V340.541H132.292V364.415ZM132.292 393.717H120.894V369.839H132.292V393.717ZM110.858 276.509H99.461V252.635H110.858V276.509ZM110.858 305.811H99.461V281.932H110.858V305.811ZM110.858 335.113H99.461V311.239H110.858V335.113ZM110.858 364.415H99.461V340.541H110.858V364.415ZM110.858 393.717H99.461V369.839H110.858V393.717ZM89.4246 276.509H78.0276V252.635H89.4246V276.509ZM89.4246 305.811H78.0276V281.932H89.4246V305.811ZM89.4246 335.113H78.0276V311.239H89.4246V335.113ZM89.4246 364.415H78.0276V340.541H89.4246V364.415ZM89.4246 393.717H78.0276V369.839H89.4246V393.717ZM67.9912 276.509H56.594V252.635H67.9912V276.509ZM67.9912 305.811H56.594V281.932H67.9912V305.811ZM67.9912 335.113H56.594V311.239H67.9912V335.113ZM67.9912 364.415H56.594V340.541H67.9912V364.415ZM67.9912 393.717H56.594V369.839H67.9912V393.717ZM161.486 222.306L47.4258 243.955V429.316H161.486V222.306Z" fill="#010303"/>
<path d="M194.58 282.025H359.085V343.609H194.58V282.025Z" fill="#010303"/>
<path d="M352.324 233.137L341.743 236.811V216.55H352.324V233.137ZM318.954 229.899V213.787L330.346 202.39V216.55H332.303L318.954 229.899ZM315.698 233.156L305.929 242.924V226.807L315.698 217.043V233.156ZM302.672 246.176L292.908 255.945V239.832L302.672 230.063V246.176ZM289.652 259.201L279.883 268.97V252.853L289.652 243.089V259.201ZM276.627 272.227L266.862 281.991V265.878L276.627 256.109V272.227ZM360.465 230.312V216.55H370.229V179.112H330.346V193.179L315.932 207.598H315.698V207.832L238.334 285.191H247.545L250.581 282.155V285.191H253.837V278.899L263.606 269.134V285.191H272.868L279.648 278.411H279.883V278.176L333.603 224.456V239.635L327.418 241.784V332.942H336.319V429.318H389.767V220.135L360.465 230.312Z" fill="#010303"/>
<path d="M331.161 363.064H300.034V350.855H331.161V363.064ZM331.161 383.409H300.034V371.2H331.161V383.409ZM290.26 363.064H259.133V350.855H290.26V363.064ZM290.26 383.409H259.133V371.2H290.26V383.409ZM249.359 363.064H218.232V350.855H249.359V363.064ZM249.359 383.409H218.232V371.2H249.359V383.409ZM208.459 363.064H177.331V350.855H208.459V363.064ZM208.459 383.409H177.331V371.2H208.459V383.409ZM168.374 429.321H339.612V340.186H168.374V429.321Z" fill="#010303"/>
<path d="M219.613 125.113L218.722 296.904H229.208L242.403 283.71L241.652 125.113H219.613Z" fill="#010303"/>
<path d="M203.519 345.296L202.369 125.113L179.922 125.113L178.562 345.294L203.519 345.296Z" fill="#010303"/>
</g>
</g>
<defs>
<clipPath id="clip0_157_2292">
<rect width="1806" height="440" fill="white" transform="translate(408)"/>
</clipPath>
<clipPath id="clip1_157_2292">
<rect width="1806" height="440" fill="white" transform="translate(2214)"/>
</clipPath>
<clipPath id="clip2_157_2292">
<rect width="1806" height="440" fill="white" transform="translate(-1398)"/>
</clipPath>
</defs>
</svg>
